<svg width="39" height="39" viewBox="0 0 39 39" fill="none" xmlns="http://www.w3.org/2000/svg">
<path fill-rule="evenodd" clip-rule="evenodd" d="M0.882324 19.1248C0.882324 8.56245 9.41525 0 19.9411 0C30.467 0 39 8.56245 39 19.1248C39 29.6871 30.467 38.2495 19.9411 38.2495C9.41525 38.2495 0.882324 29.6871 0.882324 19.1248ZM19.9421 8.92489C17.1815 8.92489 16.8351 8.93701 15.7508 8.98652C14.6687 9.03624 13.93 9.20815 13.2837 9.46039C12.6152 9.72092 12.0481 10.0694 11.4831 10.6366C10.9177 11.2035 10.5704 11.7726 10.3099 12.4432C10.0579 13.092 9.88635 13.8334 9.83764 14.9189C9.78915 16.0069 9.77644 16.3547 9.77644 19.1249C9.77644 21.895 9.78872 22.2416 9.83785 23.3296C9.88762 24.4155 10.0589 25.1567 10.3101 25.8052C10.5699 26.4761 10.9172 27.0452 11.4824 27.6121C12.0472 28.1795 12.6143 28.5288 13.2825 28.7894C13.9292 29.0416 14.668 29.2135 15.75 29.2632C16.8342 29.3127 17.1804 29.3249 19.9408 29.3249C22.7016 29.3249 23.047 29.3127 24.1313 29.2632C25.2134 29.2135 25.9529 29.0416 26.5996 28.7894C27.268 28.5288 27.8342 28.1795 28.399 27.6121C28.9644 27.0452 29.3117 26.4761 29.5722 25.8054C29.8221 25.1567 29.9936 24.4153 30.0444 23.3298C30.0931 22.2418 30.1059 21.895 30.1059 19.1249C30.1059 16.3547 30.0931 16.0071 30.0444 14.9191C29.9936 13.8332 29.8221 13.092 29.5722 12.4435C29.3117 11.7726 28.9644 11.2035 28.399 10.6366C27.8336 10.0692 27.2682 9.7207 26.599 9.46039C25.951 9.20815 25.2119 9.03624 24.1298 8.98652C23.0455 8.93701 22.7004 8.92489 19.9389 8.92489H19.9421Z" fill="white"/>
<path fill-rule="evenodd" clip-rule="evenodd" d="M19.0302 10.763C19.3009 10.7626 19.6028 10.763 19.9421 10.763C22.6561 10.763 22.9778 10.7728 24.0495 10.8217C25.0406 10.8671 25.5785 11.0333 25.9368 11.1729C26.4112 11.3578 26.7493 11.5788 27.1049 11.9358C27.4607 12.2928 27.6809 12.6328 27.8656 13.1088C28.0047 13.4679 28.1705 14.0077 28.2156 15.0022C28.2643 16.0774 28.2749 16.4004 28.2749 19.1225C28.2749 21.8447 28.2643 22.1677 28.2156 23.2429C28.1703 24.2374 28.0047 24.7772 27.8656 25.1363C27.6813 25.6123 27.4607 25.9512 27.1049 26.308C26.7491 26.665 26.4114 26.886 25.9368 27.0709C25.5789 27.2111 25.0406 27.3769 24.0495 27.4223C22.978 27.4712 22.6561 27.4819 19.9421 27.4819C17.2279 27.4819 16.9062 27.4712 15.8347 27.4223C14.8436 27.3764 14.3057 27.2103 13.9472 27.0707C13.4728 26.8858 13.134 26.6648 12.7782 26.3078C12.4225 25.9508 12.2022 25.6116 12.0176 25.1354C11.8784 24.7763 11.7126 24.2366 11.6675 23.2421C11.6188 22.1668 11.6091 21.8438 11.6091 19.12C11.6091 16.3962 11.6188 16.0749 11.6675 14.9996C11.7128 14.0051 11.8784 13.4654 12.0176 13.1058C12.2018 12.6298 12.4225 12.2898 12.7782 11.9328C13.134 11.5758 13.4728 11.3548 13.9472 11.1695C14.3055 11.0293 14.8436 10.8635 15.8347 10.8178C16.7724 10.7753 17.1358 10.7626 19.0302 10.7605V10.763ZM25.368 12.4566C24.6946 12.4566 24.1482 13.0042 24.1482 13.6802C24.1482 14.356 24.6946 14.9042 25.368 14.9042C26.0414 14.9042 26.5878 14.356 26.5878 13.6802C26.5878 13.0045 26.0414 12.4566 25.368 12.4566ZM19.9421 13.8868C17.0593 13.8868 14.722 16.2321 14.722 19.1249C14.722 22.0176 17.0593 24.3619 19.9421 24.3619C22.8249 24.3619 25.1613 22.0176 25.1613 19.1249C25.1613 16.2321 22.8249 13.8868 19.9421 13.8868Z" fill="white"/>
<path fill-rule="evenodd" clip-rule="evenodd" d="M19.9421 15.7249C21.8133 15.7249 23.3304 17.247 23.3304 19.1249C23.3304 21.0025 21.8133 22.5249 19.9421 22.5249C18.0707 22.5249 16.5538 21.0025 16.5538 19.1249C16.5538 17.247 18.0707 15.7249 19.9421 15.7249Z" fill="white"/>
</svg>
