<svg width="40" height="39" viewBox="0 0 40 39" fill="none" xmlns="http://www.w3.org/2000/svg">
<path fill-rule="evenodd" clip-rule="evenodd" d="M39.0588 19.1248C39.0588 29.6871 30.5259 38.2495 20 38.2495C9.47412 38.2495 0.941162 29.6871 0.941162 19.1248C0.941162 8.56248 9.47412 0 20 0C30.5259 0 39.0588 8.56248 39.0588 19.1248ZM13.7038 17.3729C11.7946 18.2093 9.83298 19.0688 8.03918 20.0603C7.10254 20.7485 8.3474 21.2353 9.51533 21.6919C9.70099 21.7645 9.88467 21.8363 10.0574 21.908C10.2011 21.9524 10.3472 21.9991 10.4954 22.0464C11.7943 22.4616 13.2426 22.9247 14.5037 22.2282C16.5752 21.0341 18.5301 19.6536 20.4835 18.2741C21.1235 17.8221 21.7633 17.3703 22.407 16.9252C22.4372 16.9058 22.4712 16.8837 22.5084 16.8595C23.0568 16.5028 24.2901 15.7006 23.8339 16.806C22.7552 17.9898 21.5997 19.0377 20.4379 20.0914C19.6549 20.8015 18.8691 21.5142 18.102 22.2728C17.4339 22.8175 16.7401 23.913 17.4882 24.6758C19.2113 25.8863 20.9614 27.0674 22.7105 28.2478C23.2796 28.6319 23.8488 29.016 24.4167 29.4011C25.3793 30.1723 26.8838 29.5484 27.0954 28.3433C27.1895 27.7889 27.284 27.2346 27.3785 26.6803C27.9007 23.6165 28.4231 20.5517 28.8846 17.478C28.9473 16.9959 29.0184 16.5138 29.0895 16.0314C29.2619 14.8623 29.4346 13.6918 29.4885 12.5164C29.3495 11.3435 27.9322 11.6014 27.1435 11.8652C23.0893 13.4132 19.0757 15.0759 15.078 16.768C14.6251 16.9692 14.166 17.1704 13.7038 17.3729Z" fill="white"/>
</svg>
