<svg width="1667" height="682" viewBox="0 0 1667 682" fill="none" xmlns="http://www.w3.org/2000/svg">
<path d="M1357.18 242.063L1340.94 232.688L1331.56 248.926L1320.74 242.676L1330.11 226.438L1313.88 217.063L1320.13 206.238L1336.36 215.613L1345.74 199.375L1356.56 205.625L1347.19 221.863L1363.43 231.238L1357.18 242.063Z" fill="#F000FD" fill-opacity="0.7"/>
<path d="M17.2781 301.912L20.2169 285.295L3.59976 282.356L5.55893 271.278L22.1761 274.217L25.1148 257.6L36.1929 259.559L33.2542 276.176L49.8713 279.115L47.9121 290.193L31.295 287.254L28.3562 303.871L17.2781 301.912Z" fill="#F000FD" fill-opacity="0.7"/>
<path d="M523.988 603.234L565.789 591.934L554.675 633.784L523.988 603.234Z" fill="#F000FD" fill-opacity="0.7"/>
<path d="M1569.49 74.25L1603.24 93.7356L1569.49 113.221L1569.49 74.25Z" fill="#F000FD" fill-opacity="0.7"/>
<rect x="342.647" width="50" height="50" transform="rotate(15 342.647 0)" fill="#F000FD" fill-opacity="0.7"/>
<rect x="1594.91" y="628.911" width="45" height="45" transform="rotate(-51.0504 1594.91 628.911)" fill="#F000FD" fill-opacity="0.7"/>
<rect x="119.821" y="586.321" width="45" height="45" transform="rotate(-30 119.821 586.321)" fill="#F000FD" fill-opacity="0.7"/>
<circle cx="1644.5" cy="343.5" r="22.5" fill="#F000FD" fill-opacity="0.7"/>
<circle cx="908.5" cy="659.5" r="22.5" fill="#F000FD" fill-opacity="0.7"/>
</svg>
