<svg width="50" height="50" viewBox="0 0 50 50" fill="none" xmlns="http://www.w3.org/2000/svg">
<path fill-rule="evenodd" clip-rule="evenodd" d="M49 25C49 38.2548 38.2548 49 25 49C11.7452 49 1 38.2548 1 25C1 11.7452 11.7452 1 25 1C38.2548 1 49 11.7452 49 25ZM17.0715 22.8015C14.6673 23.8512 12.1971 24.9298 9.93825 26.174C8.75877 27.0376 10.3264 27.6485 11.7971 28.2215C12.0309 28.3126 12.2622 28.4027 12.4797 28.4927C12.6607 28.5484 12.8447 28.607 13.0312 28.6664C14.6669 29.1875 16.4907 29.7686 18.0787 28.8945C20.6873 27.396 23.149 25.6636 25.6089 23.9325C26.4148 23.3653 27.2205 22.7983 28.0311 22.2397C28.0691 22.2154 28.1119 22.1876 28.1588 22.1573C28.8493 21.7096 30.4024 20.7029 29.8279 22.0901C28.4695 23.5757 27.0144 24.8907 25.5515 26.213C24.5655 27.1041 23.5759 27.9985 22.6099 28.9505C21.7686 29.6341 20.8949 31.0088 21.837 31.9661C24.0069 33.4851 26.2107 34.9673 28.4132 36.4487C29.1299 36.9307 29.8466 37.4127 30.5618 37.8959C31.774 38.8637 33.6685 38.0808 33.935 36.5685C34.0535 35.8728 34.1725 35.1772 34.2915 34.4815C34.9491 30.6368 35.6069 26.7907 36.188 22.9335C36.267 22.3284 36.3565 21.7234 36.4461 21.1181C36.6632 19.651 36.8806 18.1821 36.9485 16.7071C36.7735 15.2351 34.9887 15.5588 33.9955 15.8898C28.8903 17.8324 23.8361 19.919 18.8019 22.0424C18.2316 22.295 17.6535 22.5474 17.0715 22.8015Z" fill="white" stroke="#F000FD" stroke-opacity="0.4"/>
</svg>
