<svg width="156" height="70" viewBox="0 0 156 70" fill="none" xmlns="http://www.w3.org/2000/svg">
<path d="M58.7733 35.1724H73.1675V38.4676H67.8058V48.9876H64.1213V38.4676H58.7733V35.1724Z" fill="url(#paint0_linear)"/>
<path d="M78.3643 35.1724H83.6849L89.5416 48.96H85.6096L84.7435 46.9332H77.127L76.2746 48.96H72.3427L78.3643 35.1724ZM80.7015 38.4538L78.5018 43.7621H83.3687L81.2789 38.4538H80.7015Z" fill="url(#paint1_linear)"/>
<path d="M105.283 38.7709L102.451 40.3978C101.998 39.6635 101.375 39.0489 100.636 38.6054C99.8593 38.2052 98.9933 38.0106 98.1204 38.0402C97.5799 38.0125 97.0395 38.0948 96.5315 38.282C96.0236 38.4691 95.5586 38.7574 95.1645 39.1294C94.4448 39.9237 94.046 40.9584 94.046 42.0317C94.046 43.1049 94.4448 44.1397 95.1645 44.934C95.5567 45.3054 96.0191 45.5944 96.5244 45.7838C97.0297 45.9733 97.5677 46.0593 98.1066 46.037C98.9608 46.0754 99.8097 45.8849 100.566 45.485C101.322 45.0852 101.959 44.4904 102.41 43.762L105.256 45.3614C104.577 46.635 103.544 47.6833 102.282 48.3785C101.02 49.0738 99.5836 49.386 98.1479 49.2771C96.1087 49.3587 94.1159 48.653 92.5799 47.3055C91.8578 46.6387 91.2893 45.8221 90.9142 44.9125C90.539 44.0028 90.3662 43.0221 90.4077 42.0386C90.3679 41.0548 90.5443 40.0742 90.9244 39.1664C91.3046 38.2586 91.8791 37.4458 92.6074 36.7855C94.1238 35.4495 96.0891 34.74 98.1066 34.8C99.5589 34.686 101.013 35.0013 102.288 35.707C103.564 36.4128 104.605 37.478 105.283 38.7709Z" fill="url(#paint2_linear)"/>
<path d="M120.255 36.8958C120.978 37.5536 121.556 38.3559 121.951 39.2511C122.347 40.1463 122.551 41.1146 122.551 42.0937C122.551 43.0729 122.347 44.0411 121.951 44.9363C121.556 45.8315 120.978 46.6339 120.255 47.2917C118.74 48.6091 116.802 49.3343 114.797 49.3343C112.792 49.3343 110.854 48.6091 109.339 47.2917C108.619 46.6316 108.045 45.8285 107.652 44.9336C107.259 44.0387 107.056 43.0716 107.056 42.0937C107.056 41.1159 107.259 40.1487 107.652 39.2538C108.045 38.3589 108.619 37.5559 109.339 36.8958C110.854 35.5784 112.792 34.8531 114.797 34.8531C116.802 34.8531 118.74 35.5784 120.255 36.8958ZM111.869 39.1156C111.127 39.9289 110.715 40.9914 110.715 42.0937C110.715 43.1961 111.127 44.2585 111.869 45.0719C112.255 45.4497 112.714 45.7457 113.217 45.9423C113.72 46.1389 114.257 46.232 114.797 46.2163C115.891 46.2163 116.94 45.7805 117.713 45.0048C118.487 44.2291 118.921 43.177 118.921 42.08C118.921 40.9829 118.487 39.9309 117.713 39.1551C116.94 38.3794 115.891 37.9437 114.797 37.9437C114.255 37.9315 113.717 38.029 113.214 38.2304C112.71 38.4317 112.253 38.7328 111.869 39.1156Z" fill="url(#paint3_linear)"/>
<path d="M53.4802 51.7175H58.1546L62.444 60.9415H62.5402L67.1734 51.7175H71.5865V65.5052H67.9158V56.819L63.9151 65.5052H60.9729L57.041 56.819V65.5052H53.4802V51.7175Z" fill="url(#paint4_linear)"/>
<path d="M73.9237 51.7175H86.6132V55.0404H77.5807V56.8603H85.6783V60.1832H77.5807V62.141H86.9157V65.5328H73.9237V51.7175Z" fill="url(#paint5_linear)"/>
<path d="M89.1153 51.7175H96.3606C98.2635 51.7107 100.101 52.4134 101.516 53.6892C102.227 54.2975 102.798 55.0532 103.189 55.9042C103.58 56.7552 103.783 57.6811 103.783 58.6182C103.783 59.5554 103.58 60.4813 103.189 61.3323C102.798 62.1833 102.227 62.939 101.516 63.5473C100.105 64.8315 98.266 65.5397 96.3606 65.5328H89.1153V51.7175ZM92.7723 55.0403V62.1548H96.4018C97.3639 62.1703 98.2931 61.8035 98.9865 61.1345C99.3379 60.8171 99.6169 60.4274 99.8043 59.9919C99.9918 59.5564 100.083 59.0855 100.073 58.6114C100.081 58.1355 99.9882 57.6633 99.801 57.226C99.6138 56.7887 99.3362 56.3962 98.9865 56.0744C98.6389 55.7363 98.2277 55.4707 97.777 55.2932C97.3262 55.1157 96.8447 55.0298 96.3606 55.0403H92.7723Z" fill="url(#paint6_linear)"/>
<path d="M105.943 51.7175H109.6V65.5052H105.943V51.7175Z" fill="url(#paint7_linear)"/>
<path d="M117.423 51.7175H122.757L128.614 65.5052H124.723L123.857 63.4784H116.227L115.388 65.5052H111.456L117.423 51.7175ZM119.774 54.999L117.574 60.3073H122.427L120.337 54.999H119.774Z" fill="url(#paint8_linear)"/>
<path d="M89.2254 0.322815C78.9968 0.32937 68.9284 2.87018 59.9149 7.71941C50.9015 12.5686 43.2223 19.576 37.5599 28.1188H21.667C20.7555 28.1188 19.8813 28.4819 19.2367 29.1283C18.5921 29.7748 18.23 30.6515 18.23 31.5657C18.23 32.4799 18.5921 33.3566 19.2367 34.003C19.8813 34.6494 20.7555 35.0126 21.667 35.0126H33.5592C34.3319 35.1099 35.0514 35.4587 35.6076 36.0053C36.0896 36.4874 36.4179 37.1021 36.551 37.7716C36.6842 38.441 36.6161 39.135 36.3554 39.7656C36.0948 40.3962 35.6533 40.935 35.087 41.3137C34.5206 41.6924 33.8549 41.8939 33.1742 41.8926H7.57522C6.66366 41.8926 5.78944 42.2558 5.14487 42.9022C4.5003 43.5486 4.13818 44.4254 4.13818 45.3396C4.13818 46.2537 4.5003 47.1305 5.14487 47.7769C5.78944 48.4233 6.66366 48.7865 7.57522 48.7865H28.7611C29.6726 48.7865 30.5469 49.1496 31.1914 49.7961C31.836 50.4425 32.1981 51.3192 32.1981 52.2334C32.1981 53.1476 31.836 54.0243 31.1914 54.6707C30.5469 55.3172 29.6726 55.6803 28.7611 55.6803H22.0657C21.1542 55.6803 20.28 56.0435 19.6354 56.6899C18.9908 57.3363 18.6287 58.2131 18.6287 59.1272C18.6287 60.0414 18.9908 60.9181 19.6354 61.5646C20.28 62.211 21.1542 62.5741 22.0657 62.5741H42.248C42.248 50.0791 47.1974 38.0959 56.0073 29.2606C64.8173 20.4253 76.7662 15.4617 89.2254 15.4617C101.685 15.4617 113.633 20.4253 122.443 29.2606C131.253 38.0959 136.203 50.0791 136.203 62.5741H151.326C151.297 46.0683 144.744 30.2472 133.103 18.5783C121.463 6.90943 105.684 0.344685 89.2254 0.322815Z" fill="url(#paint9_linear)"/>
<path d="M13.7619 38.0126C15.6601 38.0126 17.1989 36.4694 17.1989 34.5657C17.1989 32.662 15.6601 31.1188 13.7619 31.1188C11.8637 31.1188 10.3249 32.662 10.3249 34.5657C10.3249 36.4694 11.8637 38.0126 13.7619 38.0126Z" fill="url(#paint10_linear)"/>
<defs>
<linearGradient id="paint0_linear" x1="122.083" y1="42.08" x2="53.9064" y2="42.08" gradientUnits="userSpaceOnUse">
<stop stop-color="#3F66FF"/>
<stop offset="1" stop-color="#F000FD"/>
</linearGradient>
<linearGradient id="paint1_linear" x1="122.083" y1="42.08" x2="53.9064" y2="42.08" gradientUnits="userSpaceOnUse">
<stop stop-color="#3F66FF"/>
<stop offset="1" stop-color="#F000FD"/>
</linearGradient>
<linearGradient id="paint2_linear" x1="1411.88" y1="478.106" x2="673.906" y2="478.106" gradientUnits="userSpaceOnUse">
<stop stop-color="#3F66FF"/>
<stop offset="1" stop-color="#F000FD"/>
</linearGradient>
<linearGradient id="paint3_linear" x1="1483.01" y1="476.963" x2="714.616" y2="476.963" gradientUnits="userSpaceOnUse">
<stop stop-color="#3F66FF"/>
<stop offset="1" stop-color="#F000FD"/>
</linearGradient>
<linearGradient id="paint4_linear" x1="1661.32" y1="637.969" x2="763.427" y2="637.969" gradientUnits="userSpaceOnUse">
<stop stop-color="#3F66FF"/>
<stop offset="1" stop-color="#F000FD"/>
</linearGradient>
<linearGradient id="paint5_linear" x1="1227.61" y1="639.141" x2="583.339" y2="639.141" gradientUnits="userSpaceOnUse">
<stop stop-color="#3F66FF"/>
<stop offset="1" stop-color="#F000FD"/>
</linearGradient>
<linearGradient id="paint6_linear" x1="1391.61" y1="639.146" x2="664.236" y2="639.146" gradientUnits="userSpaceOnUse">
<stop stop-color="#3F66FF"/>
<stop offset="1" stop-color="#F000FD"/>
</linearGradient>
<linearGradient id="paint7_linear" x1="430.685" y1="637.969" x2="249.334" y2="637.969" gradientUnits="userSpaceOnUse">
<stop stop-color="#3F66FF"/>
<stop offset="1" stop-color="#F000FD"/>
</linearGradient>
<linearGradient id="paint8_linear" x1="1635.06" y1="637.969" x2="784.208" y2="637.969" gradientUnits="userSpaceOnUse">
<stop stop-color="#3F66FF"/>
<stop offset="1" stop-color="#F000FD"/>
</linearGradient>
<linearGradient id="paint9_linear" x1="1446.58" y1="1556.61" x2="15482.4" y2="1556.61" gradientUnits="userSpaceOnUse">
<stop stop-color="#3F66FF"/>
<stop offset="1" stop-color="#F000FD"/>
</linearGradient>
<linearGradient id="paint10_linear" x1="77.6907" y1="203.947" x2="733.201" y2="203.947" gradientUnits="userSpaceOnUse">
<stop stop-color="#3F66FF"/>
<stop offset="1" stop-color="#F000FD"/>
</linearGradient>
</defs>
</svg>
