<svg width="74" height="56" viewBox="0 0 74 56" fill="none" xmlns="http://www.w3.org/2000/svg">
<path d="M6.16667 0H58.5833C60.2188 0 61.7874 0.6497 62.9438 1.80617C64.1003 2.96265 64.75 4.53117 64.75 6.16667V18.5H58.5833V6.16667H6.16667V49.3333H58.5833V37H64.75V49.3333C64.75 50.9688 64.1003 52.5374 62.9438 53.6938C61.7874 54.8503 60.2188 55.5 58.5833 55.5H6.16667C4.53117 55.5 2.96265 54.8503 1.80617 53.6938C0.649701 52.5374 0 50.9688 0 49.3333V6.16667C0 4.53117 0.649701 2.96265 1.80617 1.80617C2.96265 0.6497 4.53117 0 6.16667 0ZM52.4167 37V30.8333H74V24.6667H52.4167V18.5L40.0833 27.75L52.4167 37Z" fill="black"/>
<path d="M33.9167 30.8334H12.3334V24.6667H33.9167V30.8334Z" fill="url(#paint0_linear)"/>
<path d="M33.9167 18.5001H12.3334V12.3334H33.9167V18.5001Z" fill="url(#paint1_linear)"/>
<path d="M24.6667 43.1667H12.3334V37.0001H24.6667V43.1667Z" fill="url(#paint2_linear)"/>
<defs>
<linearGradient id="paint0_linear" x1="5.97697" y1="6.40387" x2="77.1308" y2="75.2808" gradientUnits="userSpaceOnUse">
<stop stop-color="#F000FD"/>
<stop offset="1"/>
</linearGradient>
<linearGradient id="paint1_linear" x1="5.97697" y1="6.40387" x2="77.1308" y2="75.2808" gradientUnits="userSpaceOnUse">
<stop stop-color="#F000FD"/>
<stop offset="1"/>
</linearGradient>
<linearGradient id="paint2_linear" x1="5.97697" y1="6.40387" x2="77.1308" y2="75.2808" gradientUnits="userSpaceOnUse">
<stop stop-color="#F000FD"/>
<stop offset="1"/>
</linearGradient>
</defs>
</svg>
