<svg width="228" height="815" viewBox="0 0 228 815" fill="none" xmlns="http://www.w3.org/2000/svg">
<g filter="url(#filter0_b)">
<path d="M40.465 628.425L40.465 699.93L226 699.93L226 743.085L40.465 743.085L40.465 814.59L2.34999 814.59L2.34998 628.425L40.465 628.425ZM2.34998 560.784L2.34997 516.684L226 434.469L226 479.199L170.245 499.989L170.245 578.109L226 598.584L226 643.314L2.34998 560.784ZM139.69 507.864L47.395 538.734L139.69 570.864L139.69 507.864ZM112.6 432.096C98.95 432.096 85.615 429.681 72.595 424.851C59.365 419.811 47.395 412.566 36.685 403.116C25.765 393.666 17.155 382.116 10.855 368.466C4.34497 354.816 1.08996 339.276 1.08996 321.846C1.08996 301.266 5.60497 283.521 14.635 268.611C23.665 253.491 35.425 242.256 49.915 234.906L72.91 268.296C64.51 272.076 57.895 277.011 53.065 283.101C48.025 289.191 44.56 295.701 42.67 302.631C40.57 309.561 39.52 316.386 39.52 323.106C39.52 334.026 41.725 343.581 46.135 351.771C50.545 359.751 56.32 366.471 63.46 371.931C70.6 377.391 78.58 381.486 87.4 384.216C96.22 386.736 105.04 387.996 113.86 387.996C123.73 387.996 133.285 386.421 142.525 383.271C151.555 380.121 159.64 375.711 166.78 370.041C173.71 364.161 179.275 357.231 183.475 349.251C187.465 341.061 189.46 332.136 189.46 322.476C189.46 315.546 188.305 308.511 185.995 301.371C183.685 294.231 180.01 287.616 174.97 281.526C169.93 275.436 163.42 270.711 155.44 267.351L175.915 231.756C187.045 236.166 196.495 243.411 204.265 253.491C212.035 263.361 217.915 274.491 221.905 286.881C225.895 299.271 227.89 311.556 227.89 323.736C227.89 339.696 224.635 354.291 218.125 367.521C211.405 380.751 202.585 392.196 191.665 401.856C180.535 411.306 168.145 418.761 154.495 424.221C140.635 429.471 126.67 432.096 112.6 432.096ZM227.575 109.928C227.575 126.308 224.425 141.218 218.125 154.658C211.825 167.888 203.32 179.333 192.61 188.993C181.69 198.443 169.51 205.793 156.07 211.043C142.42 216.293 128.455 218.918 114.175 218.918C99.265 218.918 85.09 216.188 71.65 210.728C58 205.058 45.925 197.393 35.425 187.733C24.715 177.863 16.315 166.313 10.225 153.083C3.92496 139.643 0.774959 124.943 0.774958 108.983C0.774958 92.8126 4.02996 78.1126 10.54 64.8826C17.05 51.4426 25.765 39.9976 36.685 30.5476C47.605 21.0976 59.785 13.7476 73.225 8.49759C86.665 3.2476 100.525 0.622598 114.805 0.622598C129.505 0.622597 143.68 3.3526 157.33 8.8126C170.77 14.2726 182.845 21.9376 193.555 31.8076C204.055 41.4676 212.35 53.0176 218.44 66.4576C224.53 79.6876 227.575 94.1776 227.575 109.928ZM114.175 174.818C123.835 174.818 133.18 173.348 142.21 170.408C151.24 167.468 159.325 163.268 166.465 157.808C173.395 152.138 178.96 145.313 183.16 137.333C187.15 129.143 189.145 119.903 189.145 109.613C189.145 99.1126 187.045 89.7676 182.845 81.5776C178.435 73.3876 172.66 66.5626 165.52 61.1026C158.17 55.6426 150.085 51.5476 141.265 48.8176C132.235 45.8776 123.205 44.4076 114.175 44.4076C104.515 44.4076 95.275 45.9826 86.455 49.1326C77.425 52.0726 69.445 56.3776 62.515 62.0476C55.375 67.5076 49.81 74.3326 45.82 82.5226C41.62 90.5026 39.52 99.5326 39.52 109.613C39.52 120.323 41.725 129.773 46.135 137.963C50.335 145.943 56.005 152.663 63.145 158.123C70.285 163.583 78.265 167.783 87.085 170.723C95.905 173.453 104.935 174.818 114.175 174.818Z" fill="url(#paint0_linear)" fill-opacity="0.15"/>
</g>
<defs>
<filter id="filter0_b" x="-3.2251" y="-3.37738" width="235.115" height="821.967" filterUnits="userSpaceOnUse" color-interpolation-filters="sRGB">
<feFlood flood-opacity="0" result="BackgroundImageFix"/>
<feGaussianBlur in="BackgroundImage" stdDeviation="2"/>
<feComposite in2="SourceAlpha" operator="in" result="effect1_backgroundBlur"/>
<feBlend mode="normal" in="SourceGraphic" in2="effect1_backgroundBlur" result="shape"/>
</filter>
<linearGradient id="paint0_linear" x1="-119.554" y1="871.128" x2="289.358" y2="34.3723" gradientUnits="userSpaceOnUse">
<stop stop-color="#F000FD"/>
<stop offset="0.307292" stop-color="#F654FF"/>
<stop offset="0.729167" stop-color="#515CFF"/>
<stop offset="1" stop-color="#6352FF"/>
</linearGradient>
</defs>
</svg>
