<svg width="50" height="50" viewBox="0 0 50 50" fill="none" xmlns="http://www.w3.org/2000/svg">
<path fill-rule="evenodd" clip-rule="evenodd" d="M1 25C1 11.7452 11.7452 1 25 1C38.2548 1 49 11.7452 49 25C49 38.2548 38.2548 49 25 49C11.7452 49 1 38.2548 1 25ZM25.0012 12.2C21.5249 12.2 21.0886 12.2152 19.7233 12.2773C18.3606 12.3397 17.4305 12.5555 16.6166 12.872C15.7747 13.1989 15.0606 13.6363 14.3491 14.348C13.6371 15.0595 13.1997 15.7736 12.8717 16.6152C12.5544 17.4294 12.3384 18.3598 12.2771 19.7219C12.216 21.0873 12.2 21.5238 12.2 25.0001C12.2 28.4764 12.2155 28.9114 12.2773 30.2767C12.34 31.6394 12.5557 32.5695 12.872 33.3834C13.1992 34.2253 13.6365 34.9394 14.3483 35.6509C15.0595 36.3629 15.7736 36.8013 16.615 37.1283C17.4294 37.4448 18.3598 37.6605 19.7222 37.7229C21.0876 37.7851 21.5236 37.8003 24.9996 37.8003C28.4762 37.8003 28.9111 37.7851 30.2765 37.7229C31.6391 37.6605 32.5703 37.4448 33.3848 37.1283C34.2264 36.8013 34.9394 36.3629 35.6506 35.6509C36.3626 34.9394 36.8 34.2253 37.128 33.3837C37.4427 32.5695 37.6587 31.6391 37.7227 30.277C37.784 28.9116 37.8 28.4764 37.8 25.0001C37.8 21.5238 37.784 21.0876 37.7227 19.7222C37.6587 18.3595 37.4427 17.4294 37.128 16.6155C36.8 15.7736 36.3626 15.0595 35.6506 14.348C34.9386 13.636 34.2266 13.1987 33.384 12.872C32.5679 12.5555 31.6373 12.3397 30.2746 12.2773C28.9092 12.2152 28.4746 12.2 24.9972 12.2H25.0012Z" fill="white"/>
<path fill-rule="evenodd" clip-rule="evenodd" d="M23.8529 14.5067C24.1937 14.5062 24.574 14.5067 25.0012 14.5067C28.4188 14.5067 28.8239 14.519 30.1735 14.5803C31.4215 14.6374 32.0989 14.8459 32.5501 15.0211C33.1474 15.2531 33.5733 15.5304 34.021 15.9784C34.469 16.4264 34.7464 16.8531 34.9789 17.4505C35.1541 17.9011 35.3629 18.5785 35.4197 19.8265C35.481 21.1758 35.4944 21.5812 35.4944 24.9972C35.4944 28.4132 35.481 28.8186 35.4197 30.1679C35.3626 31.4159 35.1541 32.0933 34.9789 32.5439C34.7469 33.1413 34.469 33.5666 34.021 34.0144C33.573 34.4624 33.1477 34.7397 32.5501 34.9717C32.0994 35.1477 31.4215 35.3557 30.1735 35.4128C28.8242 35.4741 28.4188 35.4874 25.0012 35.4874C21.5833 35.4874 21.1782 35.4741 19.8289 35.4128C18.5809 35.3552 17.9035 35.1466 17.4521 34.9714C16.8547 34.7394 16.428 34.4621 15.98 34.0141C15.532 33.5661 15.2547 33.1405 15.0222 32.5429C14.847 32.0922 14.6382 31.4149 14.5814 30.1669C14.52 28.8175 14.5078 28.4122 14.5078 24.994C14.5078 21.5758 14.52 21.1726 14.5814 19.8233C14.6384 18.5753 14.847 17.8979 15.0222 17.4467C15.2542 16.8494 15.532 16.4227 15.98 15.9747C16.428 15.5267 16.8547 15.2494 17.4521 15.0168C17.9033 14.8408 18.5809 14.6328 19.8289 14.5755C21.0097 14.5222 21.4673 14.5062 23.8529 14.5035V14.5067ZM31.8338 16.632C30.9858 16.632 30.2978 17.3193 30.2978 18.1675C30.2978 19.0155 30.9858 19.7035 31.8338 19.7035C32.6818 19.7035 33.3698 19.0155 33.3698 18.1675C33.3698 17.3195 32.6818 16.632 31.8338 16.632ZM25.0012 18.4267C21.371 18.4267 18.4278 21.37 18.4278 25.0001C18.4278 28.6303 21.371 31.5722 25.0012 31.5722C28.6314 31.5722 31.5735 28.6303 31.5735 25.0001C31.5735 21.37 28.6314 18.4267 25.0012 18.4267Z" fill="white"/>
<path fill-rule="evenodd" clip-rule="evenodd" d="M25.0012 20.7334C27.3575 20.7334 29.2679 22.6436 29.2679 25.0001C29.2679 27.3564 27.3575 29.2668 25.0012 29.2668C22.6446 29.2668 20.7345 27.3564 20.7345 25.0001C20.7345 22.6436 22.6446 20.7334 25.0012 20.7334Z" fill="white"/>
<path fill-rule="evenodd" clip-rule="evenodd" d="M1 25C1 11.7452 11.7452 1 25 1C38.2548 1 49 11.7452 49 25C49 38.2548 38.2548 49 25 49C11.7452 49 1 38.2548 1 25ZM25.0012 12.2C21.5249 12.2 21.0886 12.2152 19.7233 12.2773C18.3606 12.3397 17.4305 12.5555 16.6166 12.872C15.7747 13.1989 15.0606 13.6363 14.3491 14.348C13.6371 15.0595 13.1997 15.7736 12.8717 16.6152C12.5544 17.4294 12.3384 18.3598 12.2771 19.7219C12.216 21.0873 12.2 21.5238 12.2 25.0001C12.2 28.4764 12.2155 28.9114 12.2773 30.2767C12.34 31.6394 12.5557 32.5695 12.872 33.3834C13.1992 34.2253 13.6365 34.9394 14.3483 35.6509C15.0595 36.3629 15.7736 36.8013 16.615 37.1283C17.4294 37.4448 18.3598 37.6605 19.7222 37.7229C21.0876 37.7851 21.5236 37.8003 24.9996 37.8003C28.4762 37.8003 28.9111 37.7851 30.2765 37.7229C31.6391 37.6605 32.5703 37.4448 33.3848 37.1283C34.2264 36.8013 34.9394 36.3629 35.6506 35.6509C36.3626 34.9394 36.8 34.2253 37.128 33.3837C37.4427 32.5695 37.6587 31.6391 37.7227 30.277C37.784 28.9116 37.8 28.4764 37.8 25.0001C37.8 21.5238 37.784 21.0876 37.7227 19.7222C37.6587 18.3595 37.4427 17.4294 37.128 16.6155C36.8 15.7736 36.3626 15.0595 35.6506 14.348C34.9386 13.636 34.2266 13.1987 33.384 12.872C32.5679 12.5555 31.6373 12.3397 30.2746 12.2773C28.9092 12.2152 28.4746 12.2 24.9972 12.2H25.0012Z" stroke="#F000FD" stroke-opacity="0.4"/>
<path fill-rule="evenodd" clip-rule="evenodd" d="M23.8529 14.5067C24.1937 14.5062 24.574 14.5067 25.0012 14.5067C28.4188 14.5067 28.8239 14.519 30.1735 14.5803C31.4215 14.6374 32.0989 14.8459 32.5501 15.0211C33.1474 15.2531 33.5733 15.5304 34.021 15.9784C34.469 16.4264 34.7464 16.8531 34.9789 17.4505C35.1541 17.9011 35.3629 18.5785 35.4197 19.8265C35.481 21.1758 35.4944 21.5812 35.4944 24.9972C35.4944 28.4132 35.481 28.8186 35.4197 30.1679C35.3626 31.4159 35.1541 32.0933 34.9789 32.5439C34.7469 33.1413 34.469 33.5666 34.021 34.0144C33.573 34.4624 33.1477 34.7397 32.5501 34.9717C32.0994 35.1477 31.4215 35.3557 30.1735 35.4128C28.8242 35.4741 28.4188 35.4874 25.0012 35.4874C21.5833 35.4874 21.1782 35.4741 19.8289 35.4128C18.5809 35.3552 17.9035 35.1466 17.4521 34.9714C16.8547 34.7394 16.428 34.4621 15.98 34.0141C15.532 33.5661 15.2547 33.1405 15.0222 32.5429C14.847 32.0922 14.6382 31.4149 14.5814 30.1669C14.52 28.8175 14.5078 28.4122 14.5078 24.994C14.5078 21.5758 14.52 21.1726 14.5814 19.8233C14.6384 18.5753 14.847 17.8979 15.0222 17.4467C15.2542 16.8494 15.532 16.4227 15.98 15.9747C16.428 15.5267 16.8547 15.2494 17.4521 15.0168C17.9033 14.8408 18.5809 14.6328 19.8289 14.5755C21.0097 14.5222 21.4673 14.5062 23.8529 14.5035V14.5067ZM31.8338 16.632C30.9858 16.632 30.2978 17.3193 30.2978 18.1675C30.2978 19.0155 30.9858 19.7035 31.8338 19.7035C32.6818 19.7035 33.3698 19.0155 33.3698 18.1675C33.3698 17.3195 32.6818 16.632 31.8338 16.632ZM25.0012 18.4267C21.371 18.4267 18.4278 21.37 18.4278 25.0001C18.4278 28.6303 21.371 31.5722 25.0012 31.5722C28.6314 31.5722 31.5735 28.6303 31.5735 25.0001C31.5735 21.37 28.6314 18.4267 25.0012 18.4267Z" stroke="#F000FD" stroke-opacity="0.4"/>
<path fill-rule="evenodd" clip-rule="evenodd" d="M25.0012 20.7334C27.3575 20.7334 29.2679 22.6436 29.2679 25.0001C29.2679 27.3564 27.3575 29.2668 25.0012 29.2668C22.6446 29.2668 20.7345 27.3564 20.7345 25.0001C20.7345 22.6436 22.6446 20.7334 25.0012 20.7334Z" stroke="#F000FD" stroke-opacity="0.4"/>
</svg>
